<svg xmlns="http://www.w3.org/2000/svg" version="1.1" xmlns:xlink="http://www.w3.org/1999/xlink"
    xmlns:svgjs="http://svgjs.com/svgjs" width="512" height="512" x="0" y="0" viewBox="0 0 64 64"
    style="enable-background:new 0 0 512 512" xml:space="preserve" class="">
    <g>
        <path
            d="M63.305 52.047 42 45.229v-.323c4.008-2.684 5.941-6.615 6.656-9.906H51c2.757 0 5-2.243 5-5v-8c0-1.654-1.346-3-3-3h-1a2.995 2.995 0 0 0-2.789-2.979c.762-4.171.232-7.256-1.611-9.154-1.941-1.999-4.716-2.055-6.04-1.945C40.639 3.405 37.812 0 31 0c-6.504 0-10.483 1.913-11.956 2.783L15.6.2a.999.999 0 0 0-1.59.658l-.787 5.509-3.708-2.225a1 1 0 0 0-1.508.747c-.702 6.314 2.74 9.933 5.234 11.692a2.99 2.99 0 0 0-1.24 2.418h-1c-1.654 0-3 1.346-3 3v8c0 2.757 2.243 5 5 5h2.344c.715 3.291 2.648 7.223 6.656 9.906v.323L.695 52.047A1.001 1.001 0 0 0 0 53v10a1 1 0 0 0 1 1h62a1 1 0 0 0 1-1V53c0-.435-.281-.82-.695-.953zM24 46.044c2.151 1.04 4.765 1.755 7.937 1.954L32 48c.021 0 .042 0 .062-.002 3.173-.198 5.787-.914 7.938-1.954v5.497c-.853.672-3.54 2.459-8 2.459s-7.151-1.79-8-2.458v-5.497zM53 21c.551 0 1 .449 1 1v8c0 1.654-1.346 3-3 3h-2.042c.028-.349.042-.684.042-1 1.654 0 3-1.346 3-3v-8zm-3-2v10c0 .551-.449 1-1 1H35.874c-.445-1.723-2.013-3-3.874-3s-3.428 1.277-3.874 3H15c-.551 0-1-.449-1-1V19c0-.551.449-1 1-1h34c.551 0 1 .449 1 1zM9.916 6.716l3.57 2.142a.998.998 0 0 0 1.504-.716l.761-5.328L18.4 4.8a.999.999 0 0 0 1.2 0C19.637 4.772 23.421 2 31 2c7.16 0 9 4.2 9.071 4.372.006.014.929 1.927.929 4.628a1 1 0 0 0 2 0c0-1.739-.313-3.154-.606-4.113 1.079.002 2.661.229 3.771 1.373 1.395 1.436 1.732 4.111 1.015 7.74H16.197c-.981-.418-6.178-2.932-6.281-9.284zM13 33c-1.654 0-3-1.346-3-3v-8c0-.551.449-1 1-1h1v8c0 1.654 1.346 3 3 3 0 .316.014.651.042 1zm4-1h12a1 1 0 0 0 1-1c0-1.103.897-2 2-2s2 .897 2 2a1 1 0 0 0 1 1h12c-.002.55-.233 13.04-15 13.998C17.222 45.039 17.002 32.531 17 32zm45 30H2v-8.27l20-6.4V52c0 .265.105.52.293.707C22.427 52.842 25.659 56 32 56s9.573-3.158 9.707-3.293A1 1 0 0 0 42 52v-4.67l20 6.4z"
            fill="#000000" data-original="#000000" class=""></path>
        <path
            d="M39.895 36.447a.998.998 0 0 0-.444-1.337 1.006 1.006 0 0 0-1.343.438C38.036 35.689 36.29 39 32 39s-6.036-3.311-6.105-3.447a1 1 0 0 0-1.789.895c.093.186 2.34 4.553 7.895 4.553s7.801-4.367 7.895-4.553zM47 20h-3v2h2v4h2v-5a1 1 0 0 0-1-1zM40 20h2v2h-2zM18 22h-2v5a1 1 0 0 0 1 1h3v-2h-2zM22 26h2v2h-2z"
            fill="#000000" data-original="#000000" class=""></path>
    </g>
</svg>
