<svg xmlns="http://www.w3.org/2000/svg" width="26.201" height="19.006" viewBox="0 0 26.201 19.006">
  <g id="youtube" transform="translate(1 1)">
    <path id="Path_5826" data-name="Path 5826" d="M24.694,6.662a3.058,3.058,0,0,0-2.134-2.2C20.668,4,13.1,4,13.1,4s-7.568,0-9.46.506a3.058,3.058,0,0,0-2.134,2.2A31.9,31.9,0,0,0,1,12.525a31.9,31.9,0,0,0,.506,5.863A3.058,3.058,0,0,0,3.64,20.5c1.892.506,9.46.506,9.46.506s7.568,0,9.46-.506a3.058,3.058,0,0,0,2.134-2.2,31.9,31.9,0,0,0,.506-5.775,31.9,31.9,0,0,0-.506-5.863Z" transform="translate(-0.999 -4)" fill="none" stroke="#fff" stroke-linecap="round" stroke-linejoin="round" stroke-width="2"/>
    <path id="Path_5827" data-name="Path 5827" d="M9.75,15.674l6.325-3.6L9.75,8.48Z" transform="translate(-0.124 -3.552)" fill="none" stroke="#fff" stroke-linecap="round" stroke-linejoin="round" stroke-width="2"/>
  </g>
</svg>
