<svg xmlns="http://www.w3.org/2000/svg" width="77.957" height="67.534" viewBox="0 0 77.957 67.534">
  <path id="book-outline" d="M68.478,79.633C71.084,69.348,80.925,64.1,102.351,64a2.6,2.6,0,0,1,2.606,2.606v46.9a2.606,2.606,0,0,1-2.606,2.606c-20.845,0-28.9,4.2-33.873,10.422-4.946-6.188-13.028-10.422-33.873-10.422A2.672,2.672,0,0,1,32,113.192V66.605A2.6,2.6,0,0,1,34.605,64C56.032,64.1,65.873,69.348,68.478,79.633Zm0,0v46.9" transform="translate(-29.5 -61.5)" fill="none" stroke="#fff" stroke-linecap="round" stroke-linejoin="round" stroke-width="5"/>
</svg>
