<svg xmlns="http://www.w3.org/2000/svg" xmlns:xlink="http://www.w3.org/1999/xlink" viewBox="0 0 222.41 201.46"><defs><style>.cls-1{fill:url(#linear-gradient);}.cls-2{fill:none;stroke:#fff;stroke-linecap:round;stroke-linejoin:round;stroke-width:6.28px;}</style><linearGradient id="linear-gradient" y1="107.53" x2="222.41" y2="107.53" gradientUnits="userSpaceOnUse"><stop offset="0" stop-color="#6113b4"/><stop offset="1" stop-color="#090c35"/></linearGradient></defs><g id="Layer_2" data-name="Layer 2"><g id="Object"><path class="cls-1" d="M153.78,14.78c20-2.34,42.52-2.39,57.6,11,11.76,10.44,15.54,30.81,4.3,41.81-6.36,6.23-15.62,8.12-24,11s-17.32,8.07-19.22,16.77c-2,9,4.29,17.45,9.11,25.31,7.21,11.76,11.86,25.58,10.32,39.3-2.51,22.35-23.26,41.16-45.75,41.49-15.39.22-30.15-7.3-41.34-17.86-7.36-6.95-13.55-15.29-22.09-20.71-12.28-7.79-27.56-8.44-41.92-10.66s-29.93-7.34-37-20c-5-9-4.64-20.23-1-29.82S13.09,84.61,20.27,77.25C56.62,40,103,20.71,153.78,14.78Z"/><polygon class="cls-2" points="113.06 40.62 113.06 121.07 68.05 99.63 113.06 40.62"/><polygon class="cls-2" points="113.06 40.62 113.06 121.07 158.08 99.63 113.06 40.62"/><polygon class="cls-2" points="113.06 121.05 68.05 99.61 113.06 158.43 113.06 121.05"/><polygon class="cls-2" points="113.06 121.05 158.08 99.61 113.06 158.43 113.06 121.05"/><path class="cls-2" d="M196.16,50.66a96.38,96.38,0,1,1-34.89-34.61"/></g></g></svg>