<svg xmlns="http://www.w3.org/2000/svg" xmlns:xlink="http://www.w3.org/1999/xlink" viewBox="0 0 223.97 207.6"><defs><style>.cls-1{fill:url(#linear-gradient);}.cls-2{fill:none;stroke:#fff;stroke-linecap:round;stroke-linejoin:round;stroke-width:6.28px;}</style><linearGradient id="linear-gradient" x1="447.7" y1="951.56" x2="636.03" y2="951.56" gradientTransform="matrix(-0.62, 0.78, -0.78, -0.62, 1180.05, 270.93)" gradientUnits="userSpaceOnUse"><stop offset="0" stop-color="#6113b4"/><stop offset="1" stop-color="#090c35"/></linearGradient></defs><g id="Layer_2" data-name="Layer 2"><g id="Object"><path class="cls-1" d="M146.68,55.41c-10.72-8.53-19.53-20.34-29.78-30C102,11.35,82.68,1.28,62.22.11S20.31,7.57,8.59,24.38s-11.78,41.7,1.9,57c7.51,8.37,18.1,13.31,26.35,20.93,22.32,20.61-1.67,58.66,17.94,85.08,27.9,37.55,99.05,15.41,129.67-6.51,18.1-13,31.75-34.9,37.44-56.22,5.61-21,.79-54.69-25.69-58.26-6.24-.84-12.55.39-18.85.42C164.83,66.84,155.16,62.15,146.68,55.41Z"/><line class="cls-2" x1="81.73" y1="116.43" x2="124.57" y2="94.55"/><polyline class="cls-2" points="112.46 53.38 95.04 147.77 144.39 147.77"/><path class="cls-2" d="M199.16,51.71A96.34,96.34,0,1,1,164.28,17.1"/></g></g></svg>