<svg xmlns="http://www.w3.org/2000/svg" xmlns:xlink="http://www.w3.org/1999/xlink" viewBox="0 0 238.53 220.59"><defs><style>.cls-1{fill:url(#New_Gradient_Swatch_4);}.cls-2{fill:none;stroke:#fff;stroke-linecap:round;stroke-linejoin:round;stroke-width:6.28px;}</style><linearGradient id="New_Gradient_Swatch_4" y1="110.29" x2="238.53" y2="110.29" gradientUnits="userSpaceOnUse"><stop offset="0" stop-color="#e09131"/><stop offset="1" stop-color="#fdef30"/></linearGradient></defs><g id="Layer_2" data-name="Layer 2"><g id="Object"><path class="cls-1" d="M18.56,50.83C25.17,38.07,33.73,26.56,44.7,17.5,61.09,4,83.91-3.18,104.78,1.37c26,5.66,29.46,29,36.75,51.74,12.81,40,48.66,24.56,76.35,43.23,22,14.8,26.54,56.71,13.11,83.59-18.49,37-71,54.95-98.86,27-14.61-14.62-21.76-31.46-42.78-29-18.84,2.2-35.64,18.07-55.26,11.58-18.26-6-28.94-27.75-32.39-45.81-3.35-17.49-1.36-35.65,2.63-53A169.74,169.74,0,0,1,18.56,50.83Z"/><line class="cls-2" x1="119.27" y1="149.21" x2="119.27" y2="165.77"/><line class="cls-2" x1="119.27" y1="54.82" x2="119.27" y2="71.38"/><line class="cls-2" x1="101.23" y1="54.82" x2="101.23" y2="165.77"/><path class="cls-2" d="M86.21,71.38h38.27a19.36,19.36,0,0,1,19.36,19.36v.19a19.36,19.36,0,0,1-19.36,19.36H101.23"/><path class="cls-2" d="M101.23,110.29h23.25a19.36,19.36,0,0,1,19.36,19.37v.19a19.36,19.36,0,0,1-19.36,19.36H86.21"/><path class="cls-2" d="M199.62,61.43a96.38,96.38,0,1,1-34.89-34.61"/></g></g></svg>