<svg version="1.2" xmlns="http://www.w3.org/2000/svg" viewBox="0 0 429 381" width="429" height="381">
	<title>web-designer-building-website 2 (4)-svg</title>
	<defs>
		<clipPath clipPathUnits="userSpaceOnUse" id="cp1">
			<path d="m59 173.22h-32v-30.22h32z"/>
		</clipPath>
	</defs>
	<style>
		.s0 { fill: none;stroke: #fafafa;stroke-linecap: round;stroke-linejoin: round } 
		.s1 { fill: #131353;stroke: #fafafa;stroke-linecap: round;stroke-linejoin: round;stroke-width: .5 } 
		.s2 { fill: #050846;stroke: #fafafa;stroke-linecap: round;stroke-linejoin: round } 
		.s3 { fill: #050846;stroke: #fafafa;stroke-linecap: round;stroke-linejoin: round;stroke-width: .5 } 
		.s4 { fill: none;stroke: #fafafa;stroke-linecap: round;stroke-linejoin: round;stroke-width: 4 } 
		.s5 { fill: none;stroke: #fafafa;stroke-linecap: round;stroke-linejoin: round;stroke-width: .5;stroke-dasharray: 25 } 
		.s6 { fill: none;stroke: #fafafa;stroke-linecap: round;stroke-linejoin: round;stroke-width: .5;stroke-dasharray: 23 } 
		.s7 { fill: none;stroke: #fafafa;stroke-linecap: round;stroke-linejoin: round;stroke-width: .5 } 
		.s8 { fill: none;stroke: #fafafa;stroke-linecap: round;stroke-linejoin: round;stroke-width: .5;stroke-dasharray: 22 } 
		.s9 { fill: none;stroke: #fafafa;stroke-linecap: round;stroke-linejoin: round;stroke-width: .5;stroke-dasharray: 24 } 
		.s10 { fill: #fafafa;stroke: #fafafa;stroke-linecap: round;stroke-linejoin: round } 
		.s11 { fill: none;stroke: #fafafa;stroke-linecap: round;stroke-linejoin: round;stroke-dasharray: 24 } 
		.s12 { fill: #131353;stroke: #fafafa;stroke-linecap: round;stroke-linejoin: round } 
		.s13 { fill: #1d1e65;stroke: #050846;stroke-linecap: round;stroke-linejoin: round } 
		.s14 { fill: #6566b0;stroke: #fafafa;stroke-linecap: round;stroke-linejoin: round } 
		.s15 { fill: #6566b0 } 
		.s16 { fill: #050846 } 
		.s17 { fill: #1d1e65;stroke: #fafafa;stroke-linecap: round;stroke-linejoin: round } 
		.s18 { fill: #fafafa } 
		.s19 { fill: #fafafa;stroke: #fafafa;stroke-linecap: round;stroke-linejoin: round;stroke-width: .5 } 
		.s20 { opacity: .5;fill: #3cc8c8 } 
		.s21 { opacity: .1;fill: #f7931a } 
		.s22 { opacity: .6;fill: #f7931a } 
		.s23 { fill: #48fb6f } 
		.s24 { opacity: .2;fill: #48fb6f } 
	</style>
	<path id="Layer" class="s0" d="m135.4 98.1h-80.7v-20"/>
	<path id="Layer" class="s1" d="m147.6 9.1h200.3c9.2 0 16.8 7 17.9 16h-236c1-9 8.6-16 17.8-16z"/>
	<ellipse id="Layer" class="s2" cx="343.1" cy="17.1" rx="2.1" ry="2.1"/>
	<ellipse id="Layer" class="s2" cx="330.2" cy="17.1" rx="2.1" ry="2.1"/>
	<ellipse id="Layer" class="s2" cx="317.4" cy="17.1" rx="2.1" ry="2.1"/>
	<path id="Layer" class="s3" d="m365.8 25.1q0.1 1.1 0.1 2.2v118.8c0 10-8.1 18.2-18 18.2h-200.3c-9.9 0-18-8.2-18-18.2v-118.8q0-1.1 0.1-2.2h236.1z"/>
	<path id="Layer" class="s4" d="m259.8 100h-1.9v-1.9"/>
	<path id="Layer" class="s5" d="m263.8 100h84.8"/>
	<path id="Layer" class="s4" d="m352.5 98.1v1.9h-1.9"/>
	<path id="Layer" class="s6" d="m352.5 94.4v-56.6"/>
	<path id="Layer" class="s4" d="m350.6 34h1.9v2"/>
	<path id="Layer" class="s5" d="m346.6 34h-84.8"/>
	<path id="Layer" class="s4" d="m257.9 36v-2h1.9"/>
	<path id="Layer" class="s6" d="m257.9 39.6v56.7"/>
	<path id="Layer" class="s7" d="m179.3 100h-1.9v-1.9"/>
	<path id="Layer" class="s6" d="m182.9 100h63.6"/>
	<path id="Layer" class="s7" d="m250.2 98.1v1.9h-1.9"/>
	<path id="Layer" class="s6" d="m250.2 94.4v-56.6"/>
	<path id="Layer" class="s7" d="m248.3 34h1.9v2"/>
	<path id="Layer" class="s6" d="m244.7 34h-63.6"/>
	<path id="Layer" class="s7" d="m177.4 36v-2h1.9"/>
	<path id="Layer" class="s6" d="m177.4 39.6v56.7"/>
	<path id="Layer" class="s7" d="m142.8 153.8h-1.9v-1.9"/>
	<path id="Layer" class="s8" d="m146.2 153.8h18.7"/>
	<path id="Layer" class="s7" d="m168.5 151.9v1.9h-1.9"/>
	<path id="Layer" class="s9" d="m168.5 148.2v-110.4"/>
	<path id="Layer" class="s7" d="m166.6 34h1.9v2"/>
	<path id="Layer" class="s8" d="m163.2 34h-18.7"/>
	<path id="Layer" class="s7" d="m140.9 36v-2h1.9"/>
	<path id="Layer" class="s9" d="m140.9 39.7v110.3"/>
	<path id="Layer" class="s7" d="m259.8 151.3h-1.9v-1.9"/>
	<path id="Layer" class="s5" d="m263.8 151.3h84.8"/>
	<path id="Layer" class="s7" d="m352.5 149.4v1.9h-1.9"/>
	<path id="Layer" class="s8" d="m352.5 145.9v-33.3"/>
	<path id="Layer" class="s7" d="m350.6 108.9h1.9v2"/>
	<path id="Layer" class="s5" d="m346.6 108.9h-84.8"/>
	<path id="Layer" class="s7" d="m257.9 110.9v-2h1.9"/>
	<path id="Layer" class="s8" d="m257.9 114.4v33.2"/>
	<rect id="Layer" class="s3" x="260.6" y="111.8" width="89.2" height="37.6" rx="2.6"></rect>
	<path id="Layer" class="s10" d="m315 133.9l-4.7 9.2-5.4-8.8z"/>
	<path id="Layer" class="s0" d="m308.8 137.9q-0.9 0.5-1.7 1"/>
	<path id="Layer" class="s11" d="m304 141c-13.7 10.2-20.5 29.5-15.5 46.1 4.4 14.5 16 25.3 26.4 36.2 5.3 5.6 10.7 12 10.8 19.7 0.1 6.8-3.9 12.8-8 18-8.3 10.7-18 20.2-28.8 28.3"/>
	<path id="Layer" class="s0" d="m287.4 290.4q-0.8 0.6-1.6 1.2"/>
	<path id="Layer" class="s2" d="m259.9 278.9h133.3c8.1 0 14.7 6.6 14.7 14.8v2.8h-148z"/>
	<path id="Layer" class="s12" d="m259.9 296.5h148v17.4h-148z"/>
	<path id="Layer" class="s2" d="m259.9 313.9h148v60h-148z"/>
	<path id="Layer" class="s2" d="m378.4 356.9h16.5v8.6h-16.5z"/>
	<path id="Layer" class="s2" d="m357.6 356.9h16.4v8.6h-16.4z"/>
	<path id="Layer" class="s2" d="m336.7 356.9h16.5v8.6h-16.5z"/>
	<path id="Layer" class="s2" d="m337.5 373.9q-151.8 0-303.6 0c-17.5-14.2-18.6-39.6-5.8-53.3 13.3-14.2 40-13.9 54.6 4.7 6.9-30 21.7-46.2 29.4-53.2 44.5-40.8 128.2-32.5 156.7 8.5 6.2 9 8.8 18 10 24.1 19.2-8.4 41.3-3.5 54.2 11.6 10.8 12.7 13.7 30.9 7.6 47.2q-1.6 5.2-3.1 10.4z"/>
	<path id="Layer" class="s2" d="m153.8 245.1h114v17.6h-114z"/>
	<path id="Layer" class="s2" d="m153.8 262.7h114v93.1h-114z"/>
	<path id="Layer" class="s2" d="m153.8 355.7h114v3h-114z"/>
	<path id="Layer" class="s2" d="m153.8 358.7h114v15.2h-114z"/>
	<path id="Layer" class="s10" d="m194.6 273.2h31.2v6h-31.2z"/>
	<path id="Layer" class="s10" d="m267.8 245.1l10.4 13.4-0.2 12.4-10.2-7.9z"/>
	<path id="Layer" class="s2" d="m267.8 263l10.2 7.9-1.3 86.6-8.9-1.9z"/>
	<path id="Layer" class="s2" d="m276.7 357.5v3.4l-8.9-2.3v-3z"/>
	<path id="Layer" class="s10" d="m276.7 360.9l-0.2 13h-8.7v-15.3z"/>
	<path id="Layer" class="s0" d="m428.8 373.9h-450.6"/>
	<ellipse id="Layer" class="s2" cx="54.4" cy="57.5" rx="23.3" ry="23.5"/>
	<path id="Layer" class="s13" d="m50.9 52.7c-1.6-0.9-2.7-2.7-2.7-4.7 0-3.1 2.5-5.5 5.5-5.5 3 0 5.4 2.5 5.4 5.5 0 2-1.1 3.8-2.7 4.7 4.8 1.3 8.3 5.6 8.3 10.8v5.4h-22.1v-5.4c0-5.2 3.6-9.5 8.3-10.8z"/>
	<path id="Layer" class="s14" d="m192.6 144.8l-3.7 30.1c0 0-34.7-12.9-25.1-12.6 9.6 0.3 28.8-43.4 28.8-43.4z"/>
	<path id="Layer" fill-rule="evenodd" class="s15" d="m187.2 185.3c-11.3-37.5 1.9-67.3 9.4-76.1 7.6-8.8 24.8-5.4 24.8-5.4 0 0 15.1 7.2 26.9 27.5 11.8 20.3 0 49.9 0 49.9 0 0-35.5 13.5-61.1 4.1zm62.7-13.7c0 0-14.8-12.1-30.5-12.1z"/>
	<path id="Layer" class="s0" d="m187.2 185.3c-11.3-37.5 1.9-67.3 9.4-76.1 7.6-8.8 24.8-5.4 24.8-5.4 0 0 15.1 7.2 26.9 27.5 11.8 20.3 0 49.9 0 49.9 0 0-35.5 13.5-61.1 4.1zm62.7-13.7c0 0-14.8-12.1-30.5-12.1"/>
	<path id="Layer" class="s16" d="m138.3 180.5c13.5 13.9 13.8 39.9 13.8 39.9l-20.2 15.8c0 0-6.3-15.2-17.1-33.3-10.2-16.9-27.4-45.3 0-48.8 27.4-3.4 75.6 25.5 75.6 25.5 0 0 21.8 25.8 21.3 25.9-0.4 0.1-39.2 6.5-39.2 6.5 0 0-20.2-12.9-24.8-15.2"/>
	<path id="Layer" class="s0" d="m138.3 180.5c13.5 13.9 13.8 39.9 13.8 39.9l-20.2 15.8c0 0-6.3-15.2-17.1-33.3-10.2-16.9-27.4-45.3 0-48.8 27.4-3.4 75.6 25.5 75.6 25.5 0 0 21.8 25.8 21.3 25.9-0.4 0.1-39.2 6.5-39.2 6.5 0 0-20.2-12.9-24.8-15.2"/>
	<path id="Layer" class="s10" d="m127.5 337.2c-1.2-0.1-2.1-0.8-2.9-1.7q0.4-0.4 0.5-0.5c1.1-1.6 2.4-3.7 2.4-3.7l12.4 3c0 0 0.1 1.4 0 3.4-3.8 1.8-8.5 0.1-12.4-0.5z"/>
	<path id="Layer" class="s2" d="m103.3 353.6c2.4-3.6 18.2-15.2 21.3-18.1 0.7 0.9 1.7 1.6 2.9 1.7 3.8 0.6 8.6 2.3 12.3 0.5-0.2 3.6-0.9 9-3.2 11.2-3.6 3.3-19 10.3-25 10.4-5.9 0-11-1.9-8.3-5.7z"/>
	<path id="Layer" fill-rule="evenodd" class="s16" d="m240.8 188.6c0 0 6.8 4.6 7.8 19 0.9 14.4-1.1 38-30.4 39.1-29.4 1-45.1 0.5-47.3-2-1 8-25.6 85.5-29.4 89.6-3.9 4-17.4 1.7-17.6-5.2-0.1-7 1-76.5 2.6-86.3 1.6-9.8 4-32.6 66.4-40.4zm-23.4 22.3c0 0-2.4 5.6 0.8 11.4z"/>
	<path id="Layer" class="s0" d="m240.8 188.6c0 0 6.8 4.6 7.8 19 0.9 14.4-1.1 38-30.4 39.1-29.4 1-45.1 0.5-47.3-2-1 8-25.6 85.5-29.4 89.6-3.9 4-17.4 1.7-17.6-5.2-0.1-7 1-76.5 2.6-86.3 1.6-9.8 4-32.6 66.4-40.4zm-23.4 22.3c0 0-2.4 5.6 0.8 11.4"/>
	<path id="Layer" class="s11" d="m135.4 332.4c0 0 9.1-51.2 10.5-74.4 1.3-23.3 10.1-32.1 49.2-29.4 39 2.8 36.1-17 36.1-17"/>
	<path id="Layer" class="s10" d="m243.6 193.8c0 0-7.7 9.5-18.7 10.7-11.1 1.3-23.3 0.6-36-9.5-5.7-5.3-3.5-6.8-3.5-6.8h56.8l2 4.4zm-97.1-22.6c0 0-27.4-20.9-31.6-23.6-4.1-2.7-1.5-5.3-1.5-5.3 0 0 10.5-11.2 14.7-14.8 4.2-3.6 6.8-0.9 6.8-0.9l33.6 25.7c0 0 1.8 1.5-0.5 4.1-2.2 2.6-16.8 16.3-16.8 16.3 0 0-1.3 1.7-4.7-1.5z"/>
	<path id="Layer" class="s2" d="m145.7 168.2c0 0-23.7-18-27.2-20.4-3.6-2.3-1.3-4.5-1.3-4.5 0 0 9-9.6 12.7-12.7 3.6-3.1 5.8-0.9 5.8-0.9l29 22.2c0 0 1.5 1.3-0.4 3.5-2 2.3-14.5 14-14.5 14 0 0-1.2 1.6-4.1-1.2z"/>
	<path id="Layer" fill-rule="evenodd" class="s16" d="m218.2 162.4l2.3 0.9c18.2 5 27.8 17.9 27.8 17.9-0.9 2.7-7.5 23-33.1 21.7-25.6-1.3-45.1-25.1-50.6-30.8-5.5-5.8-6-11.5-15.1-12.1-9.1-0.7-9.7-6.7-9.5-8.6 0.2-1.8 2.1-5.4-4.3-6.9-6.4-1.5-10-4.9 0.9-4.2 11 0.6 21.9 12.5 40.8 26.1 27.4 18.2 40.8-4 40.8-4zm-104.4-15.7c0 0-1.1 2.3-5.1-1.8-4-4.1-1.4-8.9 1.7-13.1 3.2-4.2 7.2-4.6 7.2-4.6 0 0 9.3 2.9 8 7.2-1.3 4.4-5.6 7.9-9.8 7-2.2-1.3-3.2 1.5-3.4 2 0 0-0.7 1.8 1.4 3.3zm88.7-48.7c-11.4 7.1-15.3-0.4-18.2-6-3-5.6-1.5-14.3-1.5-14.3 1-3.9 5.4-8.9 16.4-6.2 11 2.7 13 20.5 13 20.5l9 13.1c0 0 0.2 4.3-6.6 5.1-6.9 0.8-10.1-1.1-11.2-3.1-2.2-4.7-3.4-7.4-3.4-7.4z"/>
	<path id="Layer" class="s0" d="m202.5 98c-11.4 7.1-15.3-0.4-18.2-6-3-5.6-1.5-14.3-1.5-14.3 1-3.9 5.4-8.9 16.4-6.2 11 2.7 13 20.5 13 20.5l9 13.1c0 0 0.2 4.3-6.6 5.1-6.9 0.8-10.1-1.1-11.2-3.1-2.2-4.7-3.4-7.4-3.4-7.4m18.2 62.7l2.3 0.9c18.2 5 27.8 17.9 27.8 17.9-0.9 2.7-7.5 23-33.1 21.7-25.6-1.3-45.1-25.1-50.6-30.8-5.5-5.8-6-11.5-15.1-12.1-9.1-0.7-9.7-6.7-9.5-8.6 0.2-1.8 2.1-5.4-4.3-6.9-6.4-1.5-10-4.9 0.9-4.2 11 0.6 21.9 12.5 40.8 26.1 27.4 18.2 40.8-4 40.8-4l1.1-14.4zm-104.4-15.7c0 0-1 2.3-5-1.8-4-4.1-1.5-8.9 1.7-13.1 3.2-4.2 7.2-4.6 7.2-4.6 0 0 9.2 2.9 7.9 7.2-1.2 4.4-5.6 7.9-9.7 7-2.3-1.3-3.2 1.5-3.4 2 0 0-0.7 1.8 1.3 3.3z"/>
	<path id="Layer" class="s10" d="m202.5 98.1l-2 2.3-0.3-0.8z"/>
	<path id="Layer" class="s17" d="m200.7 85.5c0.9-1 4.9-6.3 2.2-8.9-2.8-2.7-5.7 3.8-5.7 3.8 0 0-1.7-0.4-1.7-1.6 0-1.3-4.2-3.9-6-3.4-11.1 2.9-14.4-2.1-16.3-3.8-1.8-1.7-2.4-5.7-1.1-4.9 1.2 0.8 4.6 1.6 8.3 0.2 3.8-1.4 13.9-6.9 22.5-3 8.6 4 13 13.8 13.6 19 0.6 5.1-5.1 10.8-8.6 10.7-3.6 0-4.2-5.3-4.2-5.3 0 0-4-1.7-3-2.8z"/>
	<path id="Layer" class="s18" d="m350.4 32.8h4.1v4.2h-4.1z"/>
	<path id="Layer" class="s19" d="m350.4 97.4h4.1v4.2h-4.1z"/>
	<path id="Layer" class="s19" d="m256.2 32.8h4.1v4.2h-4.1z"/>
	<path id="Layer" class="s19" d="m256.2 97.4h4.1v4.2h-4.1z"/>
	<ellipse id="Layer" class="s2" cx="376.9" cy="209.6" rx="24.4" ry="24.6"/>
	<ellipse id="Layer" class="s2" cx="376.9" cy="209.6" rx="21.7" ry="21.9"/>
	<ellipse id="Layer" class="s2" cx="42.6" cy="157.7" rx="17.4" ry="17.5"/>
	<ellipse id="Layer" class="s2" cx="42.6" cy="157.7" rx="15.5" ry="15.6"/>
	<path id="Layer" class="s0" d="m121.8 339.6l3.4 4.8-7-1.8 0.9 5.4-5.2-1.8 0.9 2.9"/>
	<path id="Layer" class="s2" d="m384.9 66.1h27.4v27.6h-27.4z"/>
	<path id="Layer" class="s0" d="m398.6 70.8v18.2"/>
	<path id="Layer" class="s0" d="m407.6 79.9h-17.8"/>
	<ellipse id="Layer" class="s2" cx="54.7" cy="98.1" rx="3.6" ry="3.6"/>
	<path id="Layer" class="s3" d="m47.2 224.4h41.3v27h-41.3z"/>
	<g id="Clip-Path" clip-path="url(#cp1)">
		<g id="Layer">
			<path id="Layer" class="s20" d="m43.1 146.2c-0.4 0.4-1.2 0.3-1.4-0.3-0.3-0.7 0.5-1.5 1.1-1.1 0.6 0.2 0.7 1 0.3 1.4zm7 0.6c-0.4 0.2-1-0.1-0.9-0.6-0.1-0.4 0.5-0.8 0.9-0.6 0.5 0.1 0.6 1 0 1.2zm-14.8 0c-0.5 0.1-0.8-0.2-0.9-0.6 0.1-0.5 0.5-0.9 1-0.7 0.6 0.2 0.5 1.2-0.1 1.3zm13.3 3.5c-0.6 0.6-1.7 0.1-1.7-0.7-0.1-0.8 0.8-1.4 1.5-1 0.7 0.4 0.7 1.3 0.2 1.7zm-10.6-1.2c0.4 0.7-0.4 1.6-1.2 1.5-0.6-0.2-1-1-0.7-1.6 0.4-0.7 1.6-0.7 1.9 0.1zm5.7 1.4c0.1 0.6-0.3 1-0.8 1.3-0.3 0-0.6 0-0.9-0.1-0.6-0.3-0.9-1.1-0.6-1.7 0.2-0.4 0.6-0.6 1.1-0.7 0.6 0 1.2 0.5 1.2 1.2zm10.9 2.4c-0.5 0.4-1.2 0.2-1.4-0.4-0.2-0.7 0.6-1.4 1.2-1 0.6 0.3 0.7 1.1 0.2 1.4zm-23.2-1.4c0.5 0.3 0.5 1.2-0.1 1.5-0.5 0.3-1.3-0.2-1.2-0.8-0.1-0.6 0.8-1.1 1.3-0.7zm10.6 3.9c-0.4 1.2-1.9 1.7-3 1.1-1-0.6-1.4-2-0.7-2.9 0.5-0.8 1.5-1.2 2.4-0.9 1.1 0.3 1.7 1.7 1.3 2.7zm4.8 0.2c-0.5 1.1-1.9 1.5-2.9 0.9-0.9-0.5-1.4-1.8-0.8-2.8 0.4-1 1.7-1.3 2.7-0.9 1 0.5 1.5 1.8 1 2.8zm4.1-1c0.2 0.7-0.5 1.4-1.2 1.4-0.7 0-1.2-0.6-1.2-1.3 0-0.6 0.5-1.1 1.2-1.2 0.6 0 1.2 0.4 1.2 1.1zm-15 1.2c-0.8 0.5-1.9-0.2-1.9-1.1 0-0.9 1-1.5 1.8-1.1 0.8 0.4 0.9 1.7 0.1 2.2zm13.3 4c-0.5 1.2-2.2 1.6-3.2 0.7-0.7-0.6-0.9-1.8-0.5-2.6 0.5-0.8 1.5-1.2 2.4-1 1.2 0.3 1.9 1.8 1.3 2.9zm-9.8 0.1c-0.5 1.1-2 1.4-3 0.7-0.9-0.6-1.2-1.9-0.6-2.8 0.5-0.8 1.5-1.1 2.4-0.9 1.2 0.3 1.9 1.9 1.2 3zm14.2-2c0.8 0.3 1 1.3 0.4 1.8-0.5 0.5-1.5 0.3-1.7-0.4-0.3-0.8 0.6-1.6 1.3-1.4zm-20.9 1.2c-0.1 0.3-0.3 0.6-0.6 0.7-0.6 0.4-1.6-0.1-1.5-0.9-0.1-0.6 0.5-1 1-1.1 0.6 0.1 1.1 0.6 1.1 1.3zm25 0.3c-0.3 0.4-1.2 0.2-1.2-0.4-0.1-0.5 0.5-0.9 1-0.7 0.3 0.2 0.5 0.7 0.2 1.1zm-29.9 0.1c-0.5 0.1-0.9-0.5-0.7-0.9 0.2-0.4 0.7-0.5 1-0.3 0.6 0.3 0.4 1.3-0.3 1.2zm17.6 1.6c0.9 0.2 1.6 1.1 1.6 2 0 1-0.7 1.9-1.7 2.1-1.3 0.3-2.6-0.8-2.5-2.1 0-1.3 1.3-2.3 2.6-2zm-3.4 1.6c0.4 1.1-0.5 2.3-1.6 2.5-1.3 0.2-2.5-0.9-2.5-2.1 0-1.3 1.4-2.3 2.6-2 0.8 0.2 1.4 0.8 1.5 1.6zm8.6 1.2c-0.5 0.7-1.8 0.5-2.1-0.4-0.3-0.8 0.5-1.8 1.4-1.6 0.9 0.1 1.4 1.3 0.7 2zm-14.7 0.2c-0.8 0.6-1.9-0.1-1.9-1-0.1-0.8 0.9-1.5 1.6-1.2 1 0.3 1.1 1.7 0.3 2.2zm-5.6 2c-0.3-0.2-0.3-0.6-0.2-0.9 0.2-0.2 0.4-0.5 0.7-0.5 0.6-0.1 1.2 0.7 0.9 1.2-0.2 0.6-1.1 0.7-1.4 0.2zm24.2-1.2c0.5 0.3 0.5 1.1 0 1.4-0.5 0.4-1.3 0-1.3-0.6-0.2-0.6 0.7-1.2 1.3-0.8zm-11.5 1.2c0.9 0.3 1 1.7 0.2 2.2-0.7 0.6-1.9-0.1-1.9-1 0-0.8 0.9-1.5 1.7-1.2zm5.3 1.3c0.5 0.1 0.6 0.6 0.6 1.1-0.1 0.4-0.4 0.8-0.9 0.9-0.6 0-1.2-0.5-1.2-1.1 0-0.7 0.8-1.3 1.5-0.9zm-10.6 1.7c-0.7 0.6-1.7 0-1.7-0.8-0.1-0.7 0.9-1.3 1.5-0.9 0.7 0.3 0.8 1.3 0.2 1.7zm-3.3 2.6c-0.1-0.4 0.3-0.7 0.7-0.8 0.5 0.1 0.9 0.7 0.6 1.1-0.3 0.5-1.2 0.3-1.3-0.3zm15 0.5c-0.5-0.2-0.3-1.2 0.3-1.2 0.4-0.1 0.7 0.3 0.8 0.6 0 0.5-0.6 1-1.1 0.6zm-6.9 0.9c-0.3 0-0.6-0.2-0.7-0.4q-0.1-0.2-0.2-0.4c0.1-0.3 0.2-0.6 0.5-0.8 0.5-0.3 1.1 0 1.3 0.5 0.2 0.6-0.3 1.2-0.9 1.1z"/>
		</g>
	</g>
	<path id="Layer" class="s21" d="m397.8 215.4c-2.9 11.6-14.8 18.8-26.6 15.8-11.7-2.9-18.9-14.7-15.9-26.4 2.9-11.7 14.8-18.8 26.5-15.9 11.8 2.9 19 14.8 16 26.5z"/>
	<path id="Layer" fill-rule="evenodd" class="s22" d="m383.1 207.5c-0.2 1.5-1 2.2-2 2.4 1.4 0.8 2.2 2 1.5 4-0.9 2.5-3 2.7-5.8 2.2l-0.7 2.7-1.6-0.5 0.7-2.6q-0.7-0.2-1.3-0.3l-0.7 2.6-1.6-0.4 0.6-2.7q-0.2 0-0.4-0.1-0.4-0.1-0.7-0.2l-2.2-0.5 0.9-1.9c0 0 1.2 0.4 1.1 0.3 0.5 0.1 0.7-0.2 0.8-0.4l1.1-4.2h0.1q-0.1 0-0.1 0l0.7-3.1c0-0.3-0.1-0.7-0.7-0.9 0 0-1.2-0.3-1.2-0.3l0.4-1.7 2.3 0.5q0.5 0.2 1 0.3l0.7-2.7 1.6 0.4-0.7 2.6q0.7 0.2 1.4 0.3l0.6-2.6 1.6 0.4-0.6 2.7c2 0.7 3.5 1.8 3.2 3.7zm-3.7 5.2c0.5-1.8-2.3-2.5-3.7-2.8q-0.2 0-0.4-0.1l-0.9 3.6q0.1 0 0.3 0.1c1.3 0.3 4.3 1.1 4.7-0.8zm-3.4-4.4c1.1 0.3 3.5 0.9 3.9-0.8 0.5-1.7-1.9-2.2-3.1-2.5q-0.2 0-0.3-0.1l-0.8 3.3q0.1 0 0.3 0.1z"/>
	<path id="Layer" class="s23" d="m66.2 245q-0.9-0.3-1.6-1l-13.4-12.8h4.4l10.8 10.3c0.4 0.4 1 0.7 1.7 0.7 0.6 0 1.2-0.3 1.7-0.7l10.7-10.3h4.4l-13.4 12.8q-0.7 0.7-1.6 1-0.9 0.4-1.8 0.4-1 0-1.9-0.4z"/>
	<path id="Layer" class="s24" d="m74.3 241.3l-2.1-2.1 2.1-2 2.2 2zm-12.5 0l-2.2-2 2.2-2.1 2.2 2.1z"/>
	<path id="Layer" class="s23" d="m69.8 235c-0.5-0.4-1.1-0.6-1.7-0.6-0.7 0-1.3 0.2-1.8 0.6l-10.7 10.3h-4.4l13.4-12.8c0.9-0.9 2.2-1.4 3.5-1.4 1.3 0 2.5 0.5 3.4 1.4l13.4 12.8h-4.4z"/>
	<ellipse id="Layer" class="s23" cx="84.6" cy="238.2" rx="1.9" ry="2"/>
	<ellipse id="Layer" class="s23" cx="51.5" cy="238.2" rx="1.9" ry="2"/>
</svg>