<svg width="683" height="482" viewBox="0 0 683 482" fill="none" xmlns="http://www.w3.org/2000/svg">
<g opacity="0.5" clip-path="url(#clip0_5329_20019)">
<path opacity="0.5653" d="M307.711 323.2L316.259 318.219L316.239 308.285L316.146 308.237L307.675 303.338L299.127 308.319L299.147 318.253L299.234 318.301L307.711 323.2ZM315.898 318.009L307.714 322.783L299.501 318.041L299.482 308.53L307.676 303.755L315.879 308.498L315.898 318.009Z" fill="#BABEC2"/>
<path opacity="0.7657" d="M441.806 352.112L441.896 352.058L475.453 332.488L475.376 293.387L475.285 293.332L441.648 273.896L441.558 273.95L407.997 293.52L408.074 332.625L408.165 332.679L441.806 352.112ZM475.099 332.287L441.805 351.699L408.438 332.419L408.361 293.721L441.652 274.309L475.022 293.589L475.099 332.287Z" fill="#BABEC2"/>
<path opacity="0.5793" d="M441.747 322.935L450.295 317.954L450.275 308.02L450.185 307.972L441.708 303.073L433.16 308.054L433.18 317.988L433.27 318.036L441.747 322.935ZM449.937 317.743L441.75 322.518L433.54 317.776L433.521 308.265L441.712 303.49L449.919 308.232L449.937 317.743Z" fill="#BABEC2"/>
<path opacity="0.901" d="M374.979 449.493L391.891 439.628L391.852 419.978L391.762 419.924L374.901 410.18L357.989 420.048L358.028 439.698L358.115 439.753L374.979 449.493ZM391.534 439.427L374.978 449.083L358.382 439.493L358.344 420.249L374.902 410.593L391.496 420.184L391.534 439.427Z" fill="#BABEC2"/>
<path opacity="0.8562" d="M375.017 468.942L408.665 449.327L408.587 410.216L408.497 410.168L374.86 390.735L341.209 410.349L341.286 449.461L341.373 449.509L375.017 468.942ZM408.307 449.117L375.017 468.528L341.643 449.248L341.566 410.56L374.864 391.148L408.231 410.428L408.307 449.117Z" fill="#BABEC2"/>
<path opacity="0.9361" d="M307.769 352.378L307.855 352.323L374.887 313.242L374.732 235.234L374.642 235.182L307.46 196.364L307.367 196.415L240.336 235.499L240.49 313.508L240.583 313.556L307.769 352.378ZM374.529 313.031L307.768 351.961L240.85 313.295L240.696 235.707L307.461 196.781L374.376 235.443L374.529 313.031Z" fill="#BABEC2"/>
<path opacity="0.6204" d="M374.633 274.445L374.72 274.39L408.284 254.821L408.207 215.716L408.116 215.665L374.479 196.228L374.389 196.28L340.828 215.849L340.905 254.954L340.992 255.009L374.633 274.445ZM407.923 254.62L374.633 274.028L341.259 254.752L341.182 216.057L374.48 196.645L407.847 215.925L407.923 254.62Z" fill="#BABEC2"/>
<path opacity="0.9207" d="M240.748 352.51L240.835 352.456L274.395 332.886L274.318 293.784L274.231 293.73L240.593 274.293L240.506 274.348L206.949 293.917L207.026 333.023L207.113 333.077L240.748 352.51ZM274.038 332.685L240.744 352.097L207.377 332.817L207.3 294.119L240.591 274.707L273.961 293.987L274.038 332.685Z" fill="#BABEC2"/>
<path opacity="0.7779" d="M307.807 371.826L324.719 361.967L324.681 342.307L324.587 342.253L307.73 332.509L290.818 342.374L290.857 362.034L290.944 362.082L307.807 371.826ZM324.359 361.757L307.807 371.412L291.21 361.822L291.172 342.579L307.73 332.923L324.321 342.513L324.359 361.757Z" fill="#BABEC2"/>
<path opacity="0.6118" d="M374.729 323.068L383.271 318.087L383.251 308.153L383.164 308.105L374.69 303.206L366.142 308.186L366.162 318.121L366.252 318.169L374.729 323.068ZM382.919 317.876L374.732 322.651L366.525 317.908L366.507 308.397L374.694 303.622L382.901 308.365L382.919 317.876Z" fill="#BABEC2"/>
<path opacity="0.6984" d="M240.709 333.055L257.621 323.197L257.582 303.54L257.495 303.492L240.628 293.748L223.716 303.607L223.754 323.264L223.841 323.318L240.709 333.055ZM257.266 322.986L240.705 332.642L224.108 323.051L224.07 303.808L240.629 294.162L257.228 303.743L257.266 322.986Z" fill="#BABEC2"/>
<path opacity="0.8157" d="M240.901 430.313L240.988 430.259L274.549 410.693L274.471 371.587L274.384 371.533L240.746 352.097L240.66 352.151L207.102 371.721L207.18 410.826L207.267 410.874L240.901 430.313ZM274.191 410.479L240.897 429.897L207.53 410.61L207.453 371.922L240.744 352.51L274.114 371.79L274.191 410.479Z" fill="#BABEC2"/>
<path opacity="0.5475" d="M374.863 481.609L374.838 468.84L307.923 430.181L241.158 469.104L241.184 481.873L240.823 481.874L240.798 468.903L307.829 429.812L307.922 429.767L375.104 468.583L375.194 468.637L375.22 481.608L374.863 481.609Z" fill="#BABEC2"/>
<path opacity="0.8834" d="M307.999 469.074L341.643 449.46L341.566 410.348L341.479 410.3L307.841 390.867L274.187 410.482L274.265 449.593L274.358 449.641L307.999 469.074ZM341.292 449.249L308.002 468.661L274.631 449.381L274.555 410.693L307.848 391.281L341.216 410.561L341.292 449.249Z" fill="#BABEC2"/>
<path opacity="0.5245" d="M251.981 481.852L257.574 478.592L257.536 459.349L240.939 449.759L224.381 459.415L224.419 478.658L230.025 481.895L229.311 481.896L224.065 478.861L224.026 459.204L240.939 449.345L257.89 459.137L257.928 478.794L252.695 481.85L251.981 481.852Z" fill="#BABEC2"/>
<path opacity="0.8927" d="M307.557 245.4L316.105 240.416L316.085 230.485L315.992 230.434L307.521 225.535L298.973 230.519L298.993 240.45L299.08 240.504L307.557 245.4ZM315.744 240.212L307.559 244.987L299.346 240.244L299.328 230.727L307.522 225.952L315.725 230.694L315.744 240.212Z" fill="#BABEC2"/>
<path opacity="0.8384" d="M173.534 255.394L190.446 245.529L190.407 225.876L190.32 225.824L173.456 216.081L156.544 225.942L156.583 245.596L156.676 245.65L173.534 255.394ZM190.092 245.321L173.533 254.981L156.943 245.387L156.905 226.147L173.457 216.494L190.053 226.081L190.092 245.321Z" fill="#BABEC2"/>
<path opacity="0.6262" d="M307.711 323.2L316.259 318.219L316.239 308.285L316.146 308.237L307.675 303.338L299.127 308.319L299.147 318.253L299.234 318.301L307.711 323.2ZM315.898 318.009L307.714 322.783L299.501 318.041L299.482 308.53L307.676 303.755L315.879 308.498L315.898 318.009Z" fill="#BABEC2"/>
<path opacity="0.5193" d="M307.865 401.003L316.412 396.016L316.393 386.088L316.299 386.034L307.828 381.141L299.281 386.122L299.3 396.05L299.387 396.104L307.865 401.003ZM316.051 395.812L307.867 400.59L299.654 395.844L299.635 386.324L307.829 381.549L316.033 386.291L316.051 395.812Z" fill="#BABEC2"/>
<path opacity="0.9905" d="M173.88 430.446L173.973 430.391L207.534 410.825L207.457 371.72L207.37 371.666L173.725 352.229L173.639 352.284L140.078 371.853L140.155 410.958L140.242 411.006L173.88 430.446ZM207.18 410.611L173.879 430.029L140.512 410.743L140.436 372.055L173.726 352.643L207.103 371.923L207.18 410.611Z" fill="#BABEC2"/>
<path opacity="0.517" d="M173.976 479.069L182.524 474.081L182.504 464.153L173.937 459.2L165.399 464.187L165.418 474.115L173.976 479.069ZM182.169 473.88L173.975 478.655L165.772 473.912L165.753 464.392L173.937 459.617L182.15 464.359L182.169 473.88Z" fill="#BABEC2"/>
<path opacity="0.9857" d="M106.518 255.527L123.43 245.662L123.392 226.008L123.298 225.957L106.441 216.213L89.5284 226.075L89.5672 245.729L89.6542 245.783L106.518 255.527ZM123.076 245.454L106.517 255.113L89.9176 245.52L89.8796 226.28L106.441 216.627L123.038 226.214L123.076 245.454Z" fill="#BABEC2"/>
<path opacity="0.7696" d="M106.865 430.579L106.952 430.524L140.513 410.958L140.435 371.853L140.348 371.798L106.714 352.362L106.62 352.416L73.0629 371.986L73.1403 411.091L73.2337 411.139L106.865 430.579ZM140.155 410.744L106.864 430.162L73.4939 410.876L73.4174 372.187L106.711 352.775L140.078 372.055L140.155 410.744Z" fill="#BABEC2"/>
<path opacity="0.8062" d="M218.469 481.918L240.797 468.903L240.644 391.302L173.726 352.643L106.958 391.566L107.112 469.167L129.495 482.094L128.787 482.095L106.848 469.424L106.761 469.37L106.607 391.365L173.638 352.284L173.725 352.229L240.91 391.044L241.004 391.099L241.158 469.104L219.183 481.916L218.469 481.918Z" fill="#BABEC2"/>
<path opacity="0.9977" d="M106.961 479.201L115.505 474.214L115.485 464.286L106.921 459.333L98.3736 464.32L98.3933 474.248L106.961 479.201ZM115.144 474.013L106.96 478.787L98.7469 474.045L98.7281 464.524L106.922 459.749L115.125 464.492L115.144 474.013Z" fill="#BABEC2"/>
<path opacity="0.6198" d="M173.514 245.665L182.062 240.681L182.042 230.75L181.955 230.699L173.475 225.8L164.937 230.784L164.956 240.715L165.043 240.77L173.514 245.665ZM181.707 240.477L173.513 245.252L165.31 240.509L165.291 230.992L173.476 226.217L181.688 230.959L181.707 240.477Z" fill="#BABEC2"/>
<path opacity="0.9164" d="M173.668 323.465L182.216 318.485L182.196 308.55L182.109 308.502L173.629 303.603L165.091 308.584L165.111 318.518L165.198 318.566L173.668 323.465ZM181.862 318.274L173.667 323.049L165.464 318.306L165.445 308.795L173.63 304.02L181.843 308.763L181.862 318.274Z" fill="#BABEC2"/>
<path opacity="0.5577" d="M173.88 430.446L173.973 430.391L207.534 410.825L207.457 371.72L207.37 371.666L173.725 352.229L173.639 352.284L140.078 371.853L140.155 410.958L140.242 411.006L173.88 430.446ZM207.18 410.611L173.879 430.029L140.512 410.743L140.436 372.055L173.726 352.643L207.103 371.923L207.18 410.611Z" fill="#BABEC2"/>
<path opacity="0.9482" d="M106.942 469.472L140.586 449.858L140.508 410.746L140.421 410.698L106.787 391.265L73.1329 410.879L73.2103 449.991L73.3037 450.039L106.942 469.472ZM140.231 449.647L106.941 469.058L73.5703 449.779L73.4938 411.09L106.788 391.679L140.155 410.958L140.231 449.647Z" fill="#BABEC2"/>
<path opacity="0.8287" d="M39.8439 430.711L39.9307 430.656L106.962 391.569L106.808 313.561L106.721 313.513L39.5353 274.688L39.4485 274.743L-27.5827 313.823L-27.4285 391.829L-27.3415 391.883L39.8439 430.711ZM106.608 391.365L39.8431 430.294L-27.0749 391.629L-27.2284 314.037L39.5362 275.108L106.454 313.773L106.608 391.365Z" fill="#BABEC2"/>
<path opacity="0.9627" d="M106.653 323.598L115.197 318.617L115.178 308.683L115.084 308.635L106.614 303.736L98.066 308.717L98.0857 318.651L98.1727 318.699L106.653 323.598ZM114.837 318.406L106.652 323.181L98.4393 318.439L98.4205 308.928L106.615 304.153L114.818 308.895L114.837 318.406Z" fill="#BABEC2"/>
<path opacity="0.5544" d="M39.8816 450.156L56.7937 440.291L56.7548 420.641L56.6678 420.586L39.8038 410.843L22.8917 420.711L22.9305 440.361L23.0175 440.416L39.8816 450.156ZM56.4393 440.09L39.8808 449.746L23.2842 440.155L23.2461 420.912L39.8046 411.256L56.4012 420.847L56.4393 440.09Z" fill="#BABEC2"/>
<path opacity="0.8016" d="M39.7669 391.811L39.8537 391.756L73.4207 372.19L73.3434 333.085L73.2499 333.031L39.6122 313.594L39.5254 313.649L5.96789 333.215L6.04523 372.32L6.13224 372.375L39.7669 391.811ZM73.0566 371.986L39.766 391.397L6.39888 372.118L6.32234 333.42L39.613 314.008L72.9801 333.288L73.0566 371.986Z" fill="#BABEC2"/>
<path opacity="0.9339" d="M39.9202 469.605L73.574 449.99L73.4967 410.879L73.4032 410.831L39.7655 391.397L6.12119 411.012L6.19855 450.124L6.28555 450.171L39.9202 469.605ZM73.2099 449.779L39.9193 469.191L6.55218 449.911L6.47566 411.223L39.7663 391.811L73.1334 411.091L73.2099 449.779Z" fill="#BABEC2"/>
<path opacity="0.7115" d="M39.4779 245.931L48.0256 240.946L48.0059 231.015L47.9189 230.964L39.4387 226.065L30.891 231.049L30.9106 240.98L31.0041 241.035L39.4779 245.931ZM47.668 240.742L39.4739 245.517L31.2675 240.774L31.2486 231.257L39.4363 226.482L47.6491 231.225L47.668 240.742Z" fill="#BABEC2"/>
<path opacity="0.6307" d="M39.5354 275.108L39.6222 275.053L73.1893 255.484L73.1119 216.379L73.0185 216.328L39.3807 196.891L39.2939 196.943L5.73644 216.512L5.81379 255.617L5.90079 255.672L39.5354 275.108ZM72.8252 255.283L39.5346 274.691L6.16744 255.414L6.0909 216.72L39.3815 197.308L72.7486 216.588L72.8252 255.283Z" fill="#BABEC2"/>
<path opacity="0.6526" d="M39.6322 323.731L48.1799 318.75L48.1602 308.815L48.0732 308.768L39.593 303.868L31.0453 308.849L31.0649 318.784L31.1583 318.831L39.6322 323.731ZM47.8223 318.539L39.6282 323.314L31.4218 318.571L31.4029 309.06L39.5906 304.285L47.8034 309.028L47.8223 318.539Z" fill="#BABEC2"/>
<path opacity="0.728" d="M305.574 323.002C305.576 324.186 306.528 325.146 307.715 325.144C308.893 325.141 309.85 324.177 309.848 322.994C309.846 321.804 308.885 320.844 307.707 320.847C306.522 320.846 305.572 321.81 305.574 323.002Z" fill="#BABEC2"/>
<path opacity="0.7652" d="M439.668 351.905C439.67 353.095 440.625 354.055 441.809 354.053C442.99 354.05 443.944 353.086 443.942 351.897C443.939 350.717 442.982 349.753 441.801 349.756C440.616 349.758 439.666 350.725 439.668 351.905Z" fill="#BABEC2"/>
<path opacity="0.9334" d="M447.959 308.127C447.961 309.317 448.922 310.277 450.1 310.275C451.284 310.273 452.238 309.309 452.236 308.119C452.233 306.939 451.272 305.976 450.091 305.978C448.91 305.98 447.956 306.944 447.959 308.127Z" fill="#BABEC2"/>
<path opacity="0.6915" d="M356.068 439.597C356.071 440.786 357.025 441.746 358.209 441.744C359.387 441.742 360.344 440.778 360.342 439.588C360.34 438.405 359.379 437.445 358.201 437.447C357.017 437.449 356.066 438.417 356.068 439.597Z" fill="#BABEC2"/>
<path opacity="0.7801" d="M339.253 410.462C339.255 411.645 340.216 412.605 341.394 412.603C342.575 412.601 343.529 411.637 343.527 410.453C343.524 409.264 342.567 408.304 341.386 408.306C340.208 408.305 339.25 409.269 339.253 410.462Z" fill="#BABEC2"/>
<path opacity="0.8122" d="M406.271 410.329C406.273 411.513 407.234 412.473 408.412 412.47C409.593 412.468 410.551 411.504 410.548 410.321C410.546 409.131 409.585 408.171 408.404 408.173C407.226 408.173 406.269 409.136 406.271 410.329Z" fill="#BABEC2"/>
<path opacity="0.7332" d="M372.57 313.138C372.572 314.327 373.533 315.287 374.714 315.285C375.892 315.283 376.849 314.319 376.847 313.129C376.845 311.946 375.884 310.986 374.706 310.988C373.525 310.99 372.568 311.954 372.57 313.138Z" fill="#BABEC2"/>
<path opacity="0.6303" d="M372.416 235.344C372.418 236.53 373.379 237.491 374.56 237.488C375.738 237.486 376.695 236.522 376.693 235.336C376.69 234.146 375.729 233.183 374.552 233.185C373.37 233.187 372.413 234.151 372.416 235.344Z" fill="#BABEC2"/>
<path opacity="0.9423" d="M305.67 371.625C305.672 372.805 306.623 373.768 307.811 373.766C308.989 373.764 309.946 372.797 309.944 371.617C309.941 370.427 308.98 369.464 307.802 369.466C306.618 369.471 305.667 370.435 305.67 371.625Z" fill="#BABEC2"/>
<path opacity="0.8456" d="M238.571 332.858C238.574 334.047 239.534 335.001 240.712 334.999C241.89 334.996 242.847 334.039 242.845 332.849C242.843 331.66 241.882 330.699 240.704 330.702C239.526 330.701 238.569 331.668 238.571 332.858Z" fill="#BABEC2"/>
<path opacity="0.9902" d="M272.234 410.594C272.237 411.778 273.198 412.738 274.375 412.735C275.553 412.733 276.511 411.769 276.508 410.586C276.506 409.396 275.545 408.436 274.367 408.439C273.189 408.441 272.232 409.402 272.234 410.594Z" fill="#BABEC2"/>
<path opacity="0.7274" d="M238.841 469.006C238.843 470.189 239.804 471.149 240.982 471.147C242.16 471.145 243.117 470.181 243.115 468.998C243.112 467.808 242.151 466.848 240.973 466.85C239.795 466.853 238.838 467.816 238.841 469.006Z" fill="#BABEC2"/>
<path opacity="0.9855" d="M305.785 429.973C305.787 431.163 306.739 432.123 307.926 432.121C309.104 432.119 310.061 431.155 310.059 429.965C310.057 428.775 309.096 427.812 307.918 427.814C306.733 427.817 305.782 428.784 305.785 429.973Z" fill="#BABEC2"/>
<path opacity="0.7825" d="M307.523 227.892C306.343 227.894 305.384 226.934 305.382 225.748C305.379 224.561 306.334 223.597 307.514 223.595C308.695 223.593 309.653 224.553 309.656 225.739C309.658 226.926 308.703 227.89 307.523 227.892Z" fill="#BABEC2"/>
<path opacity="0.5344" d="M221.868 362.058C221.87 363.248 222.831 364.208 224.019 364.206C225.197 364.204 226.154 363.236 226.152 362.05C226.149 360.867 225.188 359.907 224.01 359.909C222.823 359.915 221.866 360.878 221.868 362.058Z" fill="#BABEC2"/>
<path opacity="0.7663" d="M205.213 410.727C205.215 411.91 206.176 412.87 207.354 412.868C208.542 412.866 209.489 411.902 209.487 410.719C209.484 409.529 208.533 408.569 207.346 408.571C206.168 408.57 205.211 409.534 205.213 410.727Z" fill="#BABEC2"/>
<path opacity="0.5432" d="M171.742 430.239C171.745 431.428 172.706 432.388 173.883 432.386C175.071 432.384 176.028 431.42 176.026 430.23C176.023 429.04 175.062 428.077 173.875 428.079C172.697 428.082 171.74 429.049 171.742 430.239Z" fill="#BABEC2"/>
<path opacity="0.5589" d="M138.114 371.957C138.117 373.137 139.078 374.1 140.265 374.098C141.443 374.095 142.4 373.128 142.398 371.948C142.395 370.758 141.434 369.795 140.257 369.797C139.069 369.803 138.112 370.767 138.114 371.957Z" fill="#BABEC2"/>
<path opacity="0.8499" d="M171.589 352.435C171.591 353.625 172.552 354.585 173.73 354.583C174.918 354.58 175.875 353.616 175.872 352.427C175.87 351.247 174.909 350.283 173.722 350.286C172.544 350.288 171.587 351.255 171.589 352.435Z" fill="#BABEC2"/>
<path opacity="0.5784" d="M104.304 216.423C104.307 217.609 105.258 218.569 106.446 218.567C107.624 218.565 108.581 217.601 108.578 216.414C108.576 215.228 107.615 214.268 106.437 214.27C105.25 214.272 104.302 215.236 104.304 216.423Z" fill="#BABEC2"/>
<path opacity="0.7656" d="M104.727 430.371C104.73 431.561 105.681 432.521 106.869 432.519C108.047 432.516 109.004 431.552 109.001 430.363C108.999 429.173 108.038 428.21 106.86 428.212C105.673 428.214 104.725 429.181 104.727 430.371Z" fill="#BABEC2"/>
<path opacity="0.5656" d="M238.841 469.006C238.843 470.189 239.804 471.149 240.982 471.147C242.16 471.145 243.117 470.181 243.115 468.998C243.112 467.808 242.151 466.848 240.973 466.85C239.795 466.853 238.838 467.816 238.841 469.006Z" fill="#BABEC2"/>
<path opacity="0.9016" d="M179.741 240.586C179.743 241.773 180.704 242.733 181.892 242.731C183.07 242.728 184.027 241.764 184.025 240.578C184.022 239.391 183.061 238.431 181.883 238.434C180.696 238.436 179.739 239.4 179.741 240.586Z" fill="#BABEC2"/>
<path opacity="0.6844" d="M171.492 303.813C171.495 305.002 172.455 305.962 173.633 305.96C174.821 305.958 175.778 304.994 175.776 303.804C175.773 302.621 174.812 301.661 173.625 301.663C172.447 301.666 171.49 302.629 171.492 303.813Z" fill="#BABEC2"/>
<path opacity="0.9473" d="M37.6678 411.059C37.6702 412.242 38.6312 413.202 39.8091 413.2C40.987 413.197 41.9441 412.233 41.9418 411.05C41.9394 409.86 40.9785 408.9 39.8006 408.903C38.6227 408.902 37.6655 409.866 37.6678 411.059Z" fill="#BABEC2"/>
<path opacity="0.9003" d="M71.1766 410.992C71.179 412.175 72.1399 413.136 73.3178 413.133C74.4957 413.131 75.4529 412.167 75.4505 410.984C75.4482 409.794 74.4872 408.834 73.3093 408.836C72.1314 408.835 71.1743 409.799 71.1766 410.992Z" fill="#BABEC2"/>
<path opacity="0.935" d="M104.65 391.471C104.653 392.661 105.604 393.621 106.791 393.619C107.969 393.616 108.927 392.652 108.924 391.463C108.922 390.279 107.961 389.31 106.783 389.312C105.595 389.314 104.648 390.288 104.65 391.471Z" fill="#BABEC2"/>
<path opacity="0.5725" d="M104.497 313.668C104.499 314.858 105.451 315.818 106.638 315.815C107.816 315.813 108.773 314.849 108.771 313.659C108.769 312.476 107.808 311.516 106.63 311.518C105.442 311.521 104.495 312.485 104.497 313.668Z" fill="#BABEC2"/>
<path opacity="0.8898" d="M3.92468 294.422C3.92703 295.611 4.88796 296.571 6.06586 296.569C7.25341 296.567 8.20095 295.603 8.1986 294.413C8.19624 293.223 7.24489 292.26 6.05734 292.263C4.87944 292.265 3.92233 293.232 3.92468 294.422Z" fill="#BABEC2"/>
<path opacity="0.8321" d="M4.078 372.222C4.08033 373.402 5.04126 374.365 6.21916 374.363C7.40672 374.36 8.35425 373.393 8.35192 372.213C8.34957 371.024 7.39821 370.06 6.21066 370.063C5.03277 370.068 4.07565 371.032 4.078 372.222Z" fill="#BABEC2"/>
<path opacity="0.5515" d="M37.7831 469.404C37.7854 470.587 38.7464 471.547 39.9243 471.545C41.1022 471.543 42.0593 470.579 42.057 469.395C42.0546 468.206 41.0937 467.246 39.9158 467.248C38.7379 467.25 37.7807 468.214 37.7831 469.404Z" fill="#BABEC2"/>
<path opacity="0.5764" d="M39.4429 228.422C38.2627 228.425 37.304 227.465 37.3016 226.278C37.2993 225.091 38.2542 224.128 39.4344 224.125C40.6146 224.123 41.5732 225.083 41.5755 226.27C41.5779 227.456 40.6231 228.42 39.4429 228.422Z" fill="#BABEC2"/>
<path opacity="0.6501" d="M70.869 255.386C70.8714 256.576 71.8323 257.536 73.0102 257.533C74.1881 257.531 75.1453 256.567 75.1429 255.377C75.1406 254.194 74.1796 253.234 73.0017 253.236C71.8238 253.239 70.8667 254.206 70.869 255.386Z" fill="#BABEC2"/>
<path opacity="0.8785" d="M37.4559 304.078C37.4583 305.267 38.4193 306.228 39.5972 306.225C40.7751 306.223 41.7322 305.259 41.7298 304.069C41.7275 302.886 40.7666 301.926 39.5887 301.928C38.4108 301.931 37.4536 302.895 37.4559 304.078Z" fill="#BABEC2"/>
<path opacity="0.7249" d="M3.92468 294.422C3.92703 295.611 4.88796 296.571 6.06586 296.569C7.25341 296.567 8.20095 295.603 8.1986 294.413C8.19624 293.223 7.24489 292.26 6.05734 292.263C4.87944 292.265 3.92233 293.232 3.92468 294.422Z" fill="#BABEC2"/>
<path opacity="0.6715" d="M659.099 0.0452876L659.125 12.9393L675.721 22.5265L692.28 12.8737L692.254 -0.0202895L692.611 -0.0209961L692.637 13.0814L675.722 22.9433L658.768 13.1484L658.742 0.0459942L659.099 0.0452876Z" fill="#BABEC2"/>
<path opacity="0.5261" d="M675.857 91.0177L684.404 86.0336L684.385 76.1026L675.818 71.1524L667.276 76.1365L667.296 86.0675L675.857 91.0177ZM684.044 85.8259L675.853 90.604L667.646 85.8584L667.628 76.341L675.815 71.5661L684.025 76.3086L684.044 85.8259Z" fill="#BABEC2"/>
<path opacity="0.5211" d="M608.838 91.1502L617.386 86.1662L617.366 76.2352L608.799 71.285L600.251 76.269L600.271 86.2001L608.838 91.1502ZM617.025 85.9585L608.834 90.7366L600.628 85.9909L600.609 76.4736L608.797 71.6987L617.006 76.4411L617.025 85.9585Z" fill="#BABEC2"/>
<path opacity="0.6374" d="M676.068 197.992L676.158 197.94L743.189 158.856L743.035 80.8478L742.945 80.7967L675.76 41.9781L675.673 42.0296L608.642 81.1136L608.796 159.119L608.883 159.173L676.068 197.992ZM742.832 158.649L676.067 197.575L609.153 158.913L608.999 81.3214L675.76 42.3918L742.678 81.057L742.832 158.649Z" fill="#BABEC2"/>
<path opacity="0.5189" d="M675.837 81.2918L675.927 81.2403L709.488 61.6709L709.411 22.5625L675.683 3.07811L642.039 22.6957L642.116 61.8042L642.203 61.8553L675.837 81.2918ZM709.13 61.4664L675.833 80.8781L642.463 61.5983L642.387 22.9035L675.684 3.49177L709.054 22.7716L709.13 61.4664Z" fill="#BABEC2"/>
<path opacity="0.5082" d="M608.858 100.873L625.77 91.0108L625.731 71.3572L608.78 61.5623L591.868 71.4242L591.907 91.0778L608.858 100.873ZM625.416 90.8063L608.854 100.459L592.261 90.8719L592.223 71.6287L608.778 61.9792L625.378 71.5631L625.416 90.8063Z" fill="#BABEC2"/>
<path opacity="0.9861" d="M608.819 81.4243L608.909 81.3728L642.467 61.8035L642.389 22.6951L608.664 3.21067L575.017 22.8283L575.094 61.9367L575.185 61.9879L608.819 81.4243ZM642.109 61.599L608.815 81.0107L575.445 61.7308L575.368 23.036L608.665 3.62433L642.032 22.9042L642.109 61.599Z" fill="#BABEC2"/>
<path opacity="0.9808" d="M667.476 0.0287442L667.492 8.06143L675.701 12.8039L683.889 8.029L683.873 -0.00368795L684.23 -0.00439453L684.247 8.23352L675.702 13.2208L667.138 8.26735L667.122 0.0294444L667.476 0.0287442Z" fill="#BABEC2"/>
<path opacity="0.9622" d="M675.914 120.192L709.561 100.571L709.484 61.4658L675.759 41.9814L642.115 61.5991L642.192 100.704L675.914 120.192ZM709.207 100.363L675.91 119.778L642.54 100.495L642.463 61.8036L675.76 42.3919L709.134 61.6717L709.21 100.363L709.207 100.363Z" fill="#BABEC2"/>
<path opacity="0.6304" d="M675.914 120.192L709.561 100.571L709.484 61.4658L675.759 41.9814L642.115 61.5991L642.192 100.704L675.914 120.192ZM709.207 100.363L675.91 119.778L642.54 100.495L642.463 61.8036L675.76 42.3919L709.134 61.6717L709.21 100.363L709.207 100.363Z" fill="#BABEC2"/>
<path opacity="0.8387" d="M609.089 217.573L626.001 207.711L625.962 188.051L609.011 178.259L592.099 188.118L592.138 207.778L609.089 217.573ZM625.646 207.503L609.085 217.159L592.491 207.569L592.453 188.325L609.008 178.67L625.608 188.26L625.646 207.503Z" fill="#BABEC2"/>
<path opacity="0.9051" d="M609.127 237.024L642.774 217.407L642.697 178.298L608.972 158.811L575.325 178.432L575.402 217.54L609.127 237.024ZM642.417 217.199L609.123 236.611L575.752 217.331L575.676 178.636L608.973 159.228L642.343 178.504L642.42 217.199L642.417 217.199Z" fill="#BABEC2"/>
<path opacity="0.5531" d="M542.07 217.705L558.982 207.843L558.943 188.183L541.992 178.392L525.08 188.25L525.119 207.91L542.07 217.705ZM558.624 207.636L542.069 217.292L525.476 207.701L525.438 188.458L541.993 178.802L558.586 188.392L558.624 207.636Z" fill="#BABEC2"/>
<path opacity="0.6181" d="M541.878 120.457L575.525 100.836L575.448 61.7307L541.723 42.2463L541.633 42.2978L508.076 61.8672L508.153 100.969L508.24 101.024L541.878 120.457ZM575.168 100.628L541.874 120.043L508.503 100.76L508.427 62.0685L541.721 42.6568L575.091 61.9366L575.168 100.628Z" fill="#BABEC2"/>
<path opacity="0.5845" d="M475.052 217.838L491.965 207.976L491.926 188.316L474.975 178.524L458.059 188.383L458.098 208.043L475.052 217.838ZM491.607 207.768L475.052 217.424L458.455 207.834L458.417 188.591L474.975 178.935L491.569 188.525L491.607 207.768Z" fill="#BABEC2"/>
<path opacity="0.951" d="M474.86 120.589L508.508 100.968L508.43 61.8633L474.706 42.3789L474.615 42.4304L441.055 61.9997L441.132 101.102L441.219 101.156L474.86 120.589ZM508.15 100.761L474.856 120.176L441.483 100.893L441.406 62.2011L474.703 42.7893L508.073 62.0692L508.15 100.761Z" fill="#BABEC2"/>
<path opacity="0.6256" d="M340.974 198.655L341.064 198.603L374.622 179.034L374.545 139.925L340.82 120.441L307.169 140.059L307.246 179.167L307.333 179.218L340.974 198.655ZM374.264 178.829L340.974 198.238L307.6 178.961L307.524 140.266L340.821 120.855L374.188 140.134L374.264 178.829Z" fill="#BABEC2"/>
<path opacity="0.5437" d="M656.807 13.0498C656.81 14.2363 657.771 15.1964 658.952 15.194C660.13 15.1917 661.087 14.2278 661.084 13.0414C661.082 11.8517 660.121 10.8884 658.943 10.8907C657.762 10.8962 656.805 11.8601 656.807 13.0498Z" fill="#BABEC2"/>
<path opacity="0.691" d="M673.719 90.8134C673.722 91.9999 674.683 92.96 675.861 92.9577C677.045 92.9554 677.999 91.9915 677.996 90.805C677.994 89.6185 677.033 88.6552 675.852 88.6576C674.671 88.6599 673.717 89.627 673.719 90.8134Z" fill="#BABEC2"/>
<path opacity="0.8706" d="M606.547 13.1492C606.55 14.3356 607.511 15.2957 608.689 15.2934C609.87 15.2911 610.827 14.3272 610.825 13.1407C610.822 11.951 609.861 10.9877 608.68 10.9901C607.499 10.9956 606.545 11.9595 606.547 13.1492Z" fill="#BABEC2"/>
<path opacity="0.6625" d="M598.292 76.3754C598.294 77.5619 599.255 78.522 600.436 78.5196C601.614 78.5173 602.571 77.5534 602.569 76.367C602.566 75.1805 601.605 74.2204 600.427 74.2227C599.246 74.2251 598.289 75.189 598.292 76.3754Z" fill="#BABEC2"/>
<path opacity="0.6645" d="M673.931 197.788C673.934 198.974 674.895 199.934 676.072 199.932C677.257 199.929 678.211 198.966 678.208 197.779C678.206 196.593 677.245 195.633 676.064 195.635C674.883 195.637 673.929 196.601 673.931 197.788Z" fill="#BABEC2"/>
<path opacity="0.9538" d="M606.836 159.023C606.838 160.21 607.799 161.17 608.977 161.168C610.158 161.165 611.115 160.201 611.113 159.015C611.11 157.825 610.149 156.868 608.968 156.871C607.787 156.87 606.833 157.831 606.836 159.023Z" fill="#BABEC2"/>
<path opacity="0.5246" d="M673.7 81.0876C673.702 82.2773 674.663 83.2342 675.841 83.2318C677.025 83.2295 677.979 82.2688 677.977 81.0791C677.975 79.8927 677.014 78.9326 675.833 78.9349C674.651 78.9372 673.697 79.9011 673.7 81.0876Z" fill="#BABEC2"/>
<path opacity="0.7605" d="M640.149 61.7087C640.151 62.8952 641.112 63.8553 642.293 63.8529C643.475 63.8506 644.428 62.8867 644.426 61.7003C644.424 60.5106 643.466 59.5505 642.285 59.5528C641.104 59.5519 640.147 60.5158 640.149 61.7087Z" fill="#BABEC2"/>
<path opacity="0.6166" d="M640.072 22.8054C640.074 23.9918 641.035 24.9519 642.216 24.9496C643.397 24.9473 644.351 23.9834 644.349 22.7969C644.347 21.6072 643.389 20.6503 642.208 20.6527C641.027 20.655 640.069 21.6157 640.072 22.8054Z" fill="#BABEC2"/>
<path opacity="0.5032" d="M589.905 71.5307C589.907 72.7172 590.868 73.6773 592.046 73.6749C593.227 73.6726 594.184 72.7087 594.182 71.5222C594.18 70.3326 593.219 69.3757 592.038 69.378C590.86 69.3771 589.903 70.341 589.905 71.5307Z" fill="#BABEC2"/>
<path opacity="0.6002" d="M685.482 -0.00683594C685.107 0.340228 684.608 0.556061 684.058 0.55715C683.504 0.558245 683.008 0.344378 682.628 -0.00118986L685.482 -0.00683594Z" fill="#BABEC2"/>
<path opacity="0.6002" d="M539.587 42.456C539.589 43.6425 540.547 44.6026 541.728 44.6003C542.909 44.5979 543.863 43.634 543.861 42.4476C543.858 41.2579 542.901 40.2978 541.719 40.3001C540.538 40.3025 539.584 41.2664 539.587 42.456Z" fill="#BABEC2"/>
<path opacity="0.6607" d="M640.149 61.7087C640.151 62.8952 641.112 63.8553 642.293 63.8529C643.475 63.8506 644.428 62.8867 644.426 61.7003C644.424 60.5106 643.466 59.5505 642.285 59.5528C641.104 59.5519 640.147 60.5158 640.149 61.7087Z" fill="#BABEC2"/>
<path opacity="0.5786" d="M590.174 207.679C590.177 208.866 591.138 209.826 592.316 209.823C593.497 209.821 594.454 208.857 594.452 207.671C594.449 206.481 593.488 205.524 592.307 205.526C591.129 205.529 590.172 206.489 590.174 207.679Z" fill="#BABEC2"/>
<path opacity="0.9283" d="M606.875 178.469C606.877 179.658 607.838 180.618 609.016 180.616C610.197 180.614 611.154 179.65 611.152 178.46C611.149 177.274 610.188 176.314 609.007 176.316C607.826 176.318 606.872 177.282 606.875 178.469Z" fill="#BABEC2"/>
<path opacity="0.6334" d="M623.648 188.161C623.651 189.348 624.608 190.308 625.79 190.305C626.971 190.303 627.925 189.339 627.922 188.153C627.92 186.966 626.962 186.003 625.781 186.005C624.6 186.008 623.646 186.978 623.648 188.161Z" fill="#BABEC2"/>
<path opacity="0.6939" d="M640.457 217.305C640.459 218.492 641.42 219.452 642.601 219.45C643.779 219.447 644.736 218.48 644.734 217.297C644.731 216.11 643.77 215.15 642.593 215.153C641.411 215.152 640.454 216.119 640.457 217.305Z" fill="#BABEC2"/>
<path opacity="0.7705" d="M606.605 42.3235C606.607 43.5099 607.568 44.47 608.746 44.4677C609.927 44.4654 610.885 43.5015 610.882 42.315C610.88 41.1253 609.919 40.1652 608.738 40.1676C607.557 40.1699 606.603 41.1338 606.605 42.3235Z" fill="#BABEC2"/>
<path opacity="0.8428" d="M573.054 22.9379C573.056 24.1244 574.017 25.0845 575.202 25.0822C576.38 25.0798 577.337 24.1159 577.334 22.9295C577.332 21.7398 576.371 20.7829 575.193 20.7852C574.009 20.7876 573.052 21.7483 573.054 22.9379Z" fill="#BABEC2"/>
<path opacity="0.9087" d="M573.054 22.9379C573.057 24.1244 574.018 25.0845 575.195 25.0822C576.377 25.0798 577.334 24.1159 577.331 22.9295C577.329 21.7398 576.368 20.7829 575.187 20.7852C574.009 20.7876 573.052 21.7483 573.054 22.9379Z" fill="#BABEC2"/>
<path opacity="0.5217" d="M539.664 81.3527C539.666 82.5424 540.624 83.4993 541.805 83.497C542.986 83.4946 543.94 82.5339 543.938 81.3443C543.935 80.1578 542.978 79.1977 541.797 79.2C540.616 79.2024 539.662 80.1663 539.664 81.3527Z" fill="#BABEC2"/>
<path opacity="0.8686" d="M472.909 217.637C472.911 218.823 473.872 219.784 475.053 219.781C476.231 219.779 477.188 218.812 477.186 217.628C477.184 216.442 476.223 215.482 475.045 215.484C473.864 215.483 472.906 216.45 472.909 217.637Z" fill="#BABEC2"/>
<path opacity="0.8488" d="M539.741 120.253C539.743 121.439 540.701 122.399 541.882 122.397C543.063 122.394 544.017 121.431 544.015 120.244C544.013 119.058 543.055 118.098 541.874 118.1C540.693 118.102 539.739 119.066 539.741 120.253Z" fill="#BABEC2"/>
<path opacity="0.8858" d="M506.189 100.871C506.192 102.057 507.153 103.017 508.331 103.015C509.512 103.012 510.466 102.049 510.463 100.862C510.461 99.6756 509.503 98.7155 508.322 98.7179C507.144 98.717 506.187 99.6841 506.189 100.871Z" fill="#BABEC2"/>
<path opacity="0.5875" d="M439.172 101.003C439.174 102.19 440.129 103.15 441.313 103.147C442.494 103.145 443.448 102.181 443.446 100.995C443.443 99.8082 442.486 98.8481 441.304 98.8504C440.12 98.8496 439.169 99.8167 439.172 101.003Z" fill="#BABEC2"/>
<path opacity="0.9745" d="M338.68 120.65C338.682 121.837 339.64 122.797 340.821 122.795C342.002 122.792 342.956 121.828 342.953 120.642C342.951 119.455 341.993 118.495 340.812 118.498C339.631 118.5 338.677 119.464 338.68 120.65Z" fill="#BABEC2"/>
<path opacity="0.6677" d="M472.87 198.185C472.872 199.372 473.833 200.332 475.014 200.329C476.192 200.327 477.149 199.363 477.147 198.177C477.144 196.99 476.184 196.03 475.006 196.033C473.824 196.035 472.867 196.999 472.87 198.185Z" fill="#BABEC2"/>
</g>
<defs>
<clipPath id="clip0_5329_20019">
<rect width="725" height="481" fill="white" transform="matrix(-0.999998 0.00197789 0.00197789 0.999998 681.999 0)"/>
</clipPath>
</defs>
</svg>
